<svg width="24" height="25" viewBox="0 0 24 25" fill="none" xmlns="http://www.w3.org/2000/svg">
<g clip-path="url(#clip0_2603_2781)">
<path fill-rule="evenodd" clip-rule="evenodd" d="M6.60749 3.75032C5.76459 4.59322 5.76464 5.94979 5.76459 8.66305L5.76459 16.3371C5.76459 19.0504 5.76459 20.407 6.60753 21.2499C7.4504 22.0928 8.80698 22.0928 11.5202 22.0928L12.4795 22.0928C15.1927 22.0928 16.5493 22.0928 17.3922 21.2499C18.235 20.407 18.235 19.0504 18.235 16.3372L18.2351 8.66306C18.2351 5.9498 18.2351 4.59324 17.3922 3.75032C16.5493 2.90743 15.1927 2.90743 12.4795 2.90743L11.5202 2.90743C8.80699 2.90743 7.45038 2.90743 6.60749 3.75032ZM14.3977 6.53565C14.8119 6.53565 15.1477 6.19986 15.1477 5.78565C15.1477 5.37143 14.8119 5.03565 14.3977 5.03565L9.60133 5.03564C9.18711 5.03565 8.85133 5.37143 8.85133 5.78564C8.85133 6.19986 9.18711 6.53565 9.60133 6.53564L14.3977 6.53565ZM11.9993 19.2155C12.794 19.2154 13.4382 18.5712 13.4382 17.7765C13.4382 16.9819 12.794 16.3376 11.9994 16.3376C11.2046 16.3377 10.5605 16.9819 10.5604 17.7766C10.5604 18.5712 11.2046 19.2155 11.9993 19.2155Z" fill="#4E4E4E"/>
</g>
<defs>
<clipPath id="clip0_2603_2781">
<rect width="24" height="24" fill="white" transform="translate(0 0.5)"/>
</clipPath>
</defs>
</svg>
